<svg width="28" height="28" viewBox="0 0 28 28" fill="none" xmlns="http://www.w3.org/2000/svg">
<path d="M8.00001 21.25C8.00001 21.664 8.33601 22 8.75001 22H15.75C18.087 22 20.012 21.219 21.25 19.984C22.481 18.756 23 17.124 23 15.5C23 13.876 22.481 12.244 21.25 11.016C20.012 9.78 18.087 9 15.75 9H7.56001L10.78 5.78C10.8537 5.71134 10.9128 5.62854 10.9538 5.53654C10.9948 5.44454 11.0168 5.34523 11.0186 5.24452C11.0204 5.14382 11.0019 5.04379 10.9641 4.9504C10.9264 4.85701 10.8703 4.77218 10.799 4.70096C10.7278 4.62974 10.643 4.5736 10.5496 4.53588C10.4562 4.49816 10.3562 4.47963 10.2555 4.48141C10.1548 4.48319 10.0555 4.50523 9.96347 4.54622C9.87147 4.58721 9.78867 4.64631 9.72001 4.72L5.22001 9.22C5.07956 9.36063 5.00067 9.55125 5.00067 9.75C5.00067 9.94875 5.07956 10.1394 5.22001 10.28L9.72001 14.78C9.78867 14.8537 9.87147 14.9128 9.96347 14.9538C10.0555 14.9948 10.1548 15.0168 10.2555 15.0186C10.3562 15.0204 10.4562 15.0018 10.5496 14.9641C10.643 14.9264 10.7278 14.8703 10.799 14.799C10.8703 14.7278 10.9264 14.643 10.9641 14.5496C11.0019 14.4562 11.0204 14.3562 11.0186 14.2555C11.0168 14.1548 10.9948 14.0555 10.9538 13.9635C10.9128 13.8715 10.8537 13.7887 10.78 13.72L7.56001 10.5H15.75C17.738 10.5 19.176 11.156 20.1 12.078C21.031 13.006 21.5 14.248 21.5 15.5C21.5036 16.1345 21.3818 16.7635 21.1416 17.3507C20.9013 17.938 20.5473 18.472 20.1 18.922C19.176 19.844 17.738 20.5 15.75 20.5H8.75001C8.5511 20.5 8.36033 20.579 8.21968 20.7197C8.07903 20.8603 8.00001 21.0511 8.00001 21.25V21.25Z" fill="black"/>
</svg>
