<svg width="28" height="28" viewBox="0 0 28 28" fill="none" xmlns="http://www.w3.org/2000/svg">
<path d="M6.84001 19.984C8.07801 21.22 9.91301 22 12.25 22H19.25C19.4489 22 19.6397 21.921 19.7803 21.7803C19.921 21.6397 20 21.4489 20 21.25C20 21.0511 19.921 20.8603 19.7803 20.7197C19.6397 20.579 19.4489 20.5 19.25 20.5H12.25C10.261 20.5 8.82401 19.844 7.90001 18.922C7.45269 18.472 7.09872 17.938 6.85846 17.3507C6.6182 16.7635 6.49638 16.1345 6.50001 15.5C6.50001 14.249 6.96901 13.006 7.90001 12.078C8.82401 11.156 10.261 10.5 12.25 10.5H20.44L17.22 13.72C17.1463 13.7887 17.0872 13.8715 17.0462 13.9635C17.0052 14.0555 16.9832 14.1548 16.9814 14.2555C16.9796 14.3562 16.9982 14.4562 17.0359 14.5496C17.0736 14.643 17.1297 14.7278 17.201 14.799C17.2722 14.8703 17.357 14.9264 17.4504 14.9641C17.5438 15.0018 17.6438 15.0204 17.7445 15.0186C17.8452 15.0168 17.9445 14.9948 18.0365 14.9538C18.1285 14.9128 18.2113 14.8537 18.28 14.78L22.78 10.28C22.9205 10.1394 22.9993 9.94875 22.9993 9.75C22.9993 9.55125 22.9205 9.36063 22.78 9.22L18.28 4.72C18.2113 4.64631 18.1285 4.58721 18.0365 4.54622C17.9445 4.50523 17.8452 4.48319 17.7445 4.48141C17.6438 4.47963 17.5438 4.49816 17.4504 4.53588C17.357 4.5736 17.2722 4.62974 17.201 4.70096C17.1297 4.77218 17.0736 4.85701 17.0359 4.9504C16.9982 5.04379 16.9796 5.14382 16.9814 5.24452C16.9832 5.34523 17.0052 5.44454 17.0462 5.53654C17.0872 5.62854 17.1463 5.71134 17.22 5.78L20.44 9H12.25C9.91301 9 8.07801 9.781 6.84001 11.016C6.25303 11.6053 5.78831 12.3049 5.47254 13.0744C5.15677 13.8439 4.99618 14.6682 5.00001 15.5C5.00001 17.124 5.60901 18.756 6.84001 19.984Z" fill="black"/>
</svg>
